<?xml version="1.0" encoding="utf-8"?>
<!-- Generator: Adobe Illustrator 21.1.0, SVG Export Plug-In . SVG Version: 6.00 Build 0)  -->
<svg version="1.1" id="Unterstützt" xmlns="http://www.w3.org/2000/svg" xmlns:xlink="http://www.w3.org/1999/xlink" x="0px"
	 y="0px" viewBox="0 0 87.2 27.5" style="enable-background:new 0 0 87.2 27.5;" xml:space="preserve">
<style type="text/css">
	.st0{display:none;}
	.st1{display:inline;}
</style>
<g>
	<g>
		<path d="M1.1,25.4H38V13.1H1.1V25.4z M1.1,0.8v0.7H38V0.8H1.1z"/>
	</g>
	<g>
		<path d="M48.1,15.5h-0.5c0-0.4-0.3-0.6-0.7-0.6c-0.4,0-0.6,0.2-0.6,0.5c0,0.3,0.1,0.4,0.8,0.6c0.6,0.2,0.8,0.3,0.9,0.5
			c0.1,0.1,0.1,0.3,0.1,0.5c0,0.6-0.5,1-1.2,1c-0.8,0-1.3-0.4-1.3-1.1v0h0.5c0,0.5,0.3,0.7,0.8,0.7c0.4,0,0.7-0.2,0.7-0.6
			c0-0.3-0.1-0.4-1-0.7c-0.6-0.2-0.9-0.4-0.9-0.9c0-0.6,0.5-0.9,1.1-0.9C47.7,14.5,48.1,14.8,48.1,15.5z"/>
		<path d="M49.1,14.5h0.5v2c0,0.7,0.2,0.9,0.7,0.9c0.3,0,0.6-0.2,0.7-0.5c0.1-0.1,0.1-0.3,0.1-0.6v-1.9h0.5v2.3v0.3
			c0,0.4,0,0.5,0.1,0.7h-0.5c-0.1-0.2-0.1-0.3-0.1-0.4c-0.2,0.4-0.5,0.5-0.9,0.5c-0.5,0-0.9-0.3-1-0.7c-0.1-0.2-0.1-0.3-0.1-0.7
			V14.5z"/>
		<path d="M52.7,19.2v-3.7c0-0.6,0-0.8-0.1-1h0.5c0,0.1,0,0.2,0.1,0.4l0,0.1c0.2-0.4,0.5-0.6,0.9-0.6c0.8,0,1.3,0.7,1.3,1.8
			c0,1-0.5,1.7-1.3,1.7c-0.4,0-0.7-0.2-1-0.5v1.8H52.7z M54.1,17.5c0.5,0,0.8-0.5,0.8-1.3c0-0.8-0.3-1.4-0.9-1.4
			c-0.5,0-0.9,0.5-0.9,1.3C53.2,17,53.5,17.5,54.1,17.5z"/>
		<path d="M56.4,19.2v-3.7c0-0.6,0-0.8-0.1-1h0.5c0,0.1,0,0.2,0.1,0.4l0,0.1c0.2-0.4,0.5-0.6,0.9-0.6c0.8,0,1.3,0.7,1.3,1.8
			c0,1-0.5,1.7-1.3,1.7c-0.4,0-0.7-0.2-1-0.5v1.8H56.4z M57.8,17.5c0.5,0,0.8-0.5,0.8-1.3c0-0.8-0.3-1.4-0.9-1.4
			c-0.5,0-0.9,0.5-0.9,1.3C56.9,17,57.2,17.5,57.8,17.5z"/>
		<path d="M59.9,16.2c0-1,0.6-1.8,1.4-1.8s1.5,0.7,1.5,1.8c0,1-0.6,1.7-1.5,1.7S59.9,17.2,59.9,16.2z M60.4,16.2
			c0,0.8,0.4,1.3,0.9,1.3s0.9-0.5,0.9-1.3c0-0.8-0.4-1.3-0.9-1.3S60.4,15.4,60.4,16.2z"/>
		<path d="M63.6,14.5h0.5c0,0.2,0.1,0.3,0.1,0.5c0,0,0,0.1,0,0.2c0.2-0.6,0.5-0.8,0.9-0.8c0.1,0,0.3,0,0.4,0.1V15
			c-0.2-0.1-0.3-0.1-0.4-0.1c-0.3,0-0.5,0.2-0.6,0.5c-0.1,0.2-0.1,0.5-0.1,1v1.5h-0.5v-2.2v-0.2C63.7,14.9,63.7,14.8,63.6,14.5z"/>
		<path d="M66.9,14.5h0.8l0,0.4h-0.8l0,1.7v0.3V17c0,0.4,0.1,0.5,0.4,0.5c0.1,0,0.3,0,0.5-0.1l0,0.4c-0.2,0.1-0.4,0.1-0.6,0.1
			c-0.5,0-0.8-0.2-0.8-0.8c0-0.1,0-0.2,0-0.3c0-0.1,0-0.2,0-0.3l0-1.7h-0.5l0-0.4h0.5l0-1H67L66.9,14.5z"/>
		<path d="M71,16.3h-2.3c0,0.8,0.4,1.2,1,1.2c0.4,0,0.6-0.1,0.8-0.5l0.5,0.1c-0.2,0.6-0.6,0.9-1.2,0.9c-0.9,0-1.5-0.7-1.5-1.7
			c0-1.1,0.6-1.8,1.4-1.8c0.8,0,1.3,0.7,1.3,1.7C71,16.2,71,16.2,71,16.3z M70.5,15.9c-0.1-0.7-0.4-1-0.9-1c-0.5,0-0.8,0.4-0.9,1
			H70.5z"/>
		<path d="M74.5,13.2v3.7c0,0.6,0,0.8,0.1,1h-0.5c0-0.1,0-0.2,0-0.4c0,0,0-0.1,0-0.1c-0.2,0.4-0.5,0.6-0.9,0.6
			c-0.8,0-1.3-0.7-1.3-1.7c0-1.1,0.5-1.8,1.3-1.8c0.4,0,0.7,0.2,0.9,0.6v-1.8H74.5z M73.2,14.9c-0.5,0-0.9,0.5-0.9,1.3
			c0,0.8,0.3,1.3,0.9,1.3c0.5,0,0.9-0.5,0.9-1.3C74,15.4,73.7,14.9,73.2,14.9z"/>
		<path d="M77.5,13.2H78V15c0.3-0.4,0.5-0.6,1-0.6c0.8,0,1.3,0.7,1.3,1.7c0,1.1-0.5,1.8-1.3,1.8c-0.4,0-0.7-0.2-0.9-0.6
			c0,0,0,0.1,0,0.1c0,0.1,0,0.3-0.1,0.4h-0.5c0-0.2,0.1-0.4,0.1-0.9V13.2z M78.9,14.9c-0.5,0-0.9,0.5-0.9,1.3c0,0.8,0.3,1.3,0.9,1.3
			c0.5,0,0.9-0.5,0.9-1.3C79.7,15.4,79.4,14.9,78.9,14.9z"/>
		<path d="M80.7,14.5h0.5l0.9,2.8l0.9-2.8h0.5l-1.1,3.1l-0.1,0.4c-0.2,0.6-0.4,0.9-0.7,1c-0.2,0.1-0.4,0.2-0.7,0.2c0,0-0.1,0-0.1,0
			v-0.4h0c0.6,0,0.8-0.2,1-0.8l0-0.1L80.7,14.5z"/>
		<path d="M49.2,21.9h-0.5c-0.1-0.6-0.5-0.9-1.1-0.9c-0.8,0-1.4,0.7-1.4,2s0.5,2,1.4,2c0.7,0,1.1-0.4,1.1-1.2h0.5
			c-0.1,1.1-0.7,1.7-1.6,1.7c-1.2,0-1.9-0.9-1.9-2.4s0.8-2.4,1.9-2.4C48.6,20.5,49.1,21,49.2,21.9z"/>
		<path d="M50.7,22.8h-0.5c0.1-0.6,0.5-1,1.2-1c0.5,0,0.9,0.2,1.1,0.5c0.1,0.2,0.1,0.3,0.1,0.7v1.2c0,0.5,0,0.6,0.1,0.9h-0.5
			c0-0.2-0.1-0.2-0.1-0.4c-0.2,0.4-0.5,0.5-1,0.5c-0.7,0-1.1-0.4-1.1-1c0-0.5,0.3-0.8,0.8-1c0.3-0.1,0.6-0.2,1.1-0.3l0.1,0V23
			c0-0.5-0.2-0.7-0.7-0.7C51,22.3,50.7,22.4,50.7,22.8z M52.1,23.5c-1.1,0.2-1.5,0.4-1.5,0.9c0,0.3,0.3,0.6,0.6,0.6
			c0.4,0,0.7-0.2,0.8-0.5c0-0.2,0.1-0.3,0.1-0.6V23.5z"/>
		<path d="M53.6,21.9h0.5c0.1,0.2,0.1,0.3,0.1,0.5c0.2-0.4,0.6-0.6,1-0.6c0.7,0,1.1,0.4,1.1,1.2v0.3v1.9h-0.5v-1.9v-0.2
			c0-0.6-0.2-0.9-0.7-0.9c-0.6,0-0.9,0.4-0.9,1.1v1.9h-0.5v-2.2v-0.2C53.7,22.3,53.7,22.2,53.6,21.9z"/>
		<path d="M58,21.9h0.8l0,0.4H58l0,1.7v0.3v0.1c0,0.4,0.1,0.5,0.4,0.5c0.1,0,0.3,0,0.5-0.1l0,0.4c-0.2,0.1-0.4,0.1-0.6,0.1
			c-0.5,0-0.8-0.2-0.8-0.8c0-0.1,0-0.2,0-0.3c0-0.1,0-0.2,0-0.3l0-1.7H57l0-0.4h0.5l0-1H58L58,21.9z"/>
		<path d="M59.3,23.6c0-1,0.6-1.8,1.4-1.8s1.5,0.7,1.5,1.8c0,1-0.6,1.7-1.5,1.7S59.3,24.6,59.3,23.6z M59.8,23.6
			c0,0.8,0.4,1.3,0.9,1.3s0.9-0.5,0.9-1.3c0-0.8-0.4-1.3-0.9-1.3S59.8,22.8,59.8,23.6z"/>
		<path d="M63.1,21.9h0.5c0.1,0.2,0.1,0.3,0.1,0.5c0.2-0.4,0.6-0.6,1-0.6c0.7,0,1.1,0.4,1.1,1.2v0.3v1.9h-0.5v-1.9v-0.2
			c0-0.6-0.2-0.9-0.7-0.9c-0.6,0-0.9,0.4-0.9,1.1v1.9h-0.5v-2.2v-0.2C63.2,22.3,63.2,22.2,63.1,21.9z"/>
		<path d="M68.5,23.6c0-1,0.6-1.8,1.4-1.8s1.5,0.7,1.5,1.8c0,1-0.6,1.7-1.5,1.7S68.5,24.6,68.5,23.6z M69,23.6
			c0,0.8,0.4,1.3,0.9,1.3s0.9-0.5,0.9-1.3c0-0.8-0.4-1.3-0.9-1.3S69,22.8,69,23.6z"/>
		<path d="M72.9,21.9h0.8v0.4h-0.8v2.9h-0.5v-2.9h-0.5v-0.4h0.5v-0.2c0-0.5,0-0.7,0.1-0.9c0.1-0.2,0.4-0.4,0.7-0.4
			c0.2,0,0.3,0,0.5,0.1v0.5c-0.2-0.1-0.3-0.1-0.5-0.1c-0.3,0-0.4,0.2-0.4,0.8V21.9z"/>
		<path d="M76.2,20.6H79V21l-2.4,3.9H79v0.5h-3v-0.4l2.4-3.8h-2.2V20.6z"/>
		<path d="M79.8,21.9h0.5v2c0,0.7,0.2,0.9,0.7,0.9c0.3,0,0.6-0.2,0.7-0.5c0.1-0.1,0.1-0.3,0.1-0.6v-1.9h0.5v2.3v0.3
			c0,0.4,0,0.5,0.1,0.7h-0.5c-0.1-0.2-0.1-0.3-0.1-0.4c-0.2,0.4-0.5,0.5-0.9,0.5c-0.5,0-0.9-0.3-1-0.7c-0.1-0.2-0.1-0.3-0.1-0.7
			V21.9z"/>
		<path d="M86.1,21.9v0.4l-0.7,0c0.2,0.2,0.3,0.5,0.3,0.8c0,0.4-0.2,0.7-0.4,0.8c-0.2,0.1-0.3,0.2-0.7,0.2c-0.6,0.1-0.7,0.2-0.7,0.4
			c0,0.1,0.1,0.2,0.7,0.2c0.7,0.1,0.9,0.1,1.2,0.3c0.2,0.2,0.3,0.4,0.3,0.7c0,0.6-0.6,1-1.5,1c-0.9,0-1.5-0.4-1.5-1
			c0-0.4,0.2-0.6,0.7-0.8c-0.3-0.1-0.4-0.2-0.4-0.4c0-0.2,0.2-0.4,0.6-0.5c-0.4-0.2-0.7-0.5-0.7-1c0-0.7,0.5-1.1,1.2-1.1
			c0.2,0,0.3,0,0.5,0.1L86.1,21.9z M84.5,25.1c-0.6,0-1,0.2-1,0.6c0,0.4,0.4,0.6,1.1,0.6c0.6,0,1-0.2,1-0.6
			C85.6,25.3,85.2,25.1,84.5,25.1z M84.5,22.3c-0.4,0-0.7,0.3-0.7,0.7c0,0.4,0.3,0.7,0.7,0.7c0.4,0,0.7-0.3,0.7-0.7
			C85.2,22.6,84.9,22.3,84.5,22.3z"/>
	</g>
</g>
</svg>
